<?xml version="1.0" encoding="utf-8"?>
<!-- Generator: Adobe Illustrator 26.0.1, SVG Export Plug-In . SVG Version: 6.00 Build 0)  -->
<svg version="1.1" id="Layer_1" xmlns="http://www.w3.org/2000/svg" xmlns:xlink="http://www.w3.org/1999/xlink" x="0px" y="0px"
	 viewBox="0 0 205 185.4" style="enable-background:new 0 0 205 185.4;" xml:space="preserve">
<style type="text/css">
	.st0{fill:#71CDE0;stroke:#71CDE0;stroke-miterlimit:10;}
	.st1{fill:#71CDE0;stroke:#71CDE0;stroke-width:0.5;stroke-miterlimit:10;}
</style>
<g>
	<g>
		<path class="st0" d="M132.5,21.1c9.1-9.1,18-14.5,25.1-14.5c2.2,0,3.9,1.7,3.9,3.8c0,6.3-19,37-53.8,55.1
			c-0.3,0.7-0.6,1.5-0.7,2.2c-6.1,20.5-19,32.5-41,37c10.5,8.2,17.2,20.4,27.5,31c16.5-15.5,38.4-24.3,60.9-24.3
			c26.1,0,47.3,10.2,47.3,22.7c0,13.8-20.8,25.1-46.4,25.1c-31.8,0-48.7-9.2-60.5-20.6c-9.1,7.5-16.6,16.9-21.2,28.2l-1.1-0.4
			c4.7-11.6,11.7-21.6,20.2-29.8c-10.6-10.9-17.4-23.3-28.3-31.5c-6,1-12.7,1.5-20.1,1.5c-14.6,0-26.5-3.2-26.5-7.1
			c0-2.8,7.3-5,16.2-5c10.7,0,18.7,2.2,25.2,5.7c19.9-6,35.8-18.8,43.7-32.2c-14.2,6.6-31.1,11-50.1,11c-28.2,0-51-14.1-51-31.4
			C1.7,24,36.6,1.5,73.8,1.5C94.9,1.5,114.1,5.4,132.5,21.1z M132,21.8C113.3,6.4,94.9,2.6,73.9,2.6C37,2.6,2.8,24.1,2.8,47.4
			c0,16.7,22.3,30.3,49.9,30.3c19.5,0,36.7-4.7,51.2-11.7l1.5-3.3C112.6,46.2,122.2,31.8,132,21.8z M57.5,100.5
			c-6.3-3.2-13.8-5.2-23.7-5.2c-7.8,0-14.6,1.8-14.6,3.9c0,2.4,7.3,4.3,16,4.3C43,103.6,50.4,102.5,57.5,100.5z M95.7,137.8
			c11.7,11.2,28.5,20.2,59.6,20.2c25,0,45.3-10.7,45.3-24c0-9.9-19.1-17.9-42.7-17.9C137.4,116.2,113.5,123.3,95.7,137.8z
			 M108.2,63.6c33.6-18,51.9-47.6,51.9-53.3c0-1.4-1.1-2.6-2.5-2.6c-6.7,0-15.3,5.4-24,14.4c1.8,1.4,3.5,3.1,5.2,4.7l-0.6,0.6
			c-1.8-1.7-3.5-3.2-5.2-4.6C123.3,33,113.7,47.6,108.2,63.6z"/>
	</g>
</g>
<g>
	<g>
		<path class="st1" d="M97.6,139.3c0-0.2,0.1-0.3,0.4-0.5c7.9-4.2,14.5-7.2,21.5-7.2c0.6,0,1.6,0.1,2.4,0.3l0.4-0.3l2.4-0.2l0.2,0.6
			c-6.5,5.2-10.6,9.7-10.6,10.9c0,0.3,0.3,0.5,0.5,0.5c2.5,0,6.8-2,11-4.5c0.2,0,0.4,0.1,0.4,0.3s-0.1,0.3-0.4,0.5
			c-3.9,2.2-8,4.4-11.1,4.4c-0.9,0-1.4-0.6-1.4-1.2c0-0.9,0.6-2.7,2.8-5c-5.3,4-10.5,6.1-13,6.1c-1.1,0-1.8-0.6-1.8-1.6
			c0-1.4,0.4-3.2,4.2-6.5c-2.1,0.9-3.6,1.7-7.4,3.7C97.8,139.6,97.6,139.5,97.6,139.3z M121.3,132.4l-1.8-0.2
			c-6.3,0-17.2,8.2-17.2,10.4c0,0.4,0.2,0.6,0.6,0.6c2,0,7.7-2.2,13.9-7C118.1,135.1,119.7,133.9,121.3,132.4z"/>
		<path class="st1" d="M125.3,139.3c0-0.2,0.1-0.3,0.4-0.5c4-2.4,6.7-4.1,11.3-7.2c0.7,0,2-0.1,2.8-0.2l0.2,0.6
			c-6.5,5.9-10.1,9.1-10.1,10.4c0,0.7,0.6,0.9,1.2,0.9c3.6,0,13.2-6.8,18.5-11.7c0.7,0,2-0.1,2.8-0.2l0.2,0.6
			c-6.5,5.9-9.8,8.9-9.8,10.6c0,0.5,0.5,0.7,1.2,0.7c1.8,0,5-1.8,9.4-4.5c0.2,0,0.4,0.1,0.4,0.3s-0.1,0.3-0.4,0.5
			c-4,2.5-7.4,4.5-9.5,4.5c-1.4,0-2.7-0.6-2.7-2c0-1.2,0.6-2.8,2.6-4.7c-3.9,2.8-9.6,6.7-12.8,6.7c-1.4,0-2.5-0.6-2.5-2.1
			s1.8-4.1,5.1-7.3c-2.7,1.8-3.9,2.5-7.8,4.9C125.5,139.6,125.3,139.5,125.3,139.3z"/>
		<path class="st1" d="M153,139.3c0-0.2,0.1-0.3,0.4-0.5c3.8-2.2,7.5-4.4,14-9.2c1.2-2.4,2.7-4.9,4.1-4.9c0.5,0,0.9,0.3,0.9,0.8
			c0,1.3-2.4,2.1-4.5,4.3c-0.6,1-0.6,1.7-0.6,2.3s0.1,1,0.1,1.8c0,3.8-7,7.2-7,8.9c0,0.4,0.2,0.6,0.7,0.6c2.8,0,6.5-1.9,10.7-4.5
			c0.2,0,0.4,0.1,0.4,0.3s-0.1,0.3-0.4,0.5c-3.8,2.3-7.7,4.4-10.8,4.4c-1.4,0-1.9-0.6-1.9-1.8c0-4.3,7.5-7.3,7.5-8.9v-0.8
			c0-0.6,0-1,0.3-1.7c-5.8,4.1-8.9,6.1-13.5,8.8C153.2,139.6,153,139.5,153,139.3z"/>
		<path class="st1" d="M171.4,139.3c0-0.2,0.1-0.3,0.4-0.5c7.9-4.2,14.5-7.2,21.5-7.2c0.6,0,1.6,0.1,2.4,0.3l0.4-0.3l2.4-0.2
			l0.2,0.6c-6.5,5.2-10.6,9.7-10.6,10.9c0,0.3,0.3,0.5,0.5,0.5c2.5,0,6.8-2,11-4.5c0.2,0,0.4,0.1,0.4,0.3s-0.1,0.3-0.4,0.5
			c-3.9,2.2-8,4.4-11.1,4.4c-0.9,0-1.4-0.6-1.4-1.2c0-0.9,0.6-2.7,2.8-5c-5.3,4-10.5,6.1-13,6.1c-1.1,0-1.8-0.6-1.8-1.6
			c0-1.4,0.4-3.2,4.2-6.5c-2.1,0.9-3.6,1.7-7.4,3.7C171.6,139.6,171.4,139.5,171.4,139.3z M195.1,132.4l-1.8-0.2
			c-6.3,0-17.2,8.2-17.2,10.4c0,0.4,0.2,0.6,0.6,0.6c2,0,7.7-2.2,13.9-7C191.9,135.1,193.5,133.9,195.1,132.4z"/>
	</g>
</g>
<g>
	<path class="st1" d="M2.7,176.1c0-0.9,0.2-1.8,0.5-2.7s0.8-1.7,1.4-2.4s1.3-1.3,2.2-1.7s1.9-0.7,3-0.7c1.3,0,2.5,0.3,3.4,0.9
		c0.9,0.6,1.6,1.4,2.1,2.3l-0.6,0.3c-0.4-0.7-0.8-1.3-1.4-1.7s-1.1-0.7-1.7-0.9c-0.6-0.2-1.2-0.3-1.8-0.3c-1,0-1.9,0.2-2.7,0.6
		c-0.8,0.4-1.4,0.9-2,1.6c-0.5,0.7-0.9,1.4-1.2,2.2s-0.4,1.6-0.4,2.4c0,0.9,0.2,1.8,0.5,2.6s0.8,1.6,1.3,2.2c0.6,0.6,1.2,1.2,2,1.5
		c0.8,0.4,1.6,0.6,2.5,0.6c0.6,0,1.3-0.1,1.9-0.3s1.3-0.5,1.8-1s1-1,1.4-1.7l0.7,0.3c-0.3,0.7-0.8,1.4-1.5,1.9
		c-0.6,0.5-1.4,0.9-2.1,1.2c-0.8,0.3-1.5,0.4-2.3,0.4c-1,0-1.9-0.2-2.8-0.7c-0.9-0.4-1.6-1-2.2-1.8s-1.1-1.6-1.4-2.5
		S2.7,177,2.7,176.1z"/>
	<path class="st1" d="M24.1,183.7c-1,0-2-0.2-2.8-0.6s-1.6-1-2.2-1.7s-1.1-1.5-1.4-2.4s-0.5-1.8-0.5-2.8s0.2-1.9,0.5-2.8
		c0.3-0.9,0.8-1.7,1.5-2.4c0.6-0.7,1.4-1.3,2.2-1.7c0.8-0.4,1.8-0.6,2.7-0.6c1,0,2,0.2,2.8,0.7c0.9,0.4,1.6,1,2.2,1.7
		s1.1,1.5,1.4,2.4s0.5,1.8,0.5,2.7c0,1-0.2,2-0.5,2.9s-0.8,1.7-1.5,2.4s-1.4,1.3-2.2,1.7C26,183.5,25,183.7,24.1,183.7z M17.8,176.2
		c0,0.9,0.2,1.8,0.5,2.6s0.7,1.6,1.3,2.2s1.2,1.2,2,1.5c0.8,0.4,1.6,0.6,2.5,0.6s1.8-0.2,2.5-0.6c0.8-0.4,1.4-0.9,2-1.6
		c0.5-0.7,1-1.4,1.3-2.2s0.4-1.6,0.4-2.5s-0.2-1.8-0.5-2.6s-0.7-1.6-1.3-2.2s-1.2-1.2-2-1.5c-0.8-0.4-1.6-0.6-2.5-0.6
		s-1.8,0.2-2.6,0.6c-0.8,0.4-1.4,0.9-2,1.6c-0.5,0.7-1,1.4-1.3,2.2C18,174.5,17.8,175.3,17.8,176.2z"/>
	<path class="st1" d="M34,183.6v-14.9h6.1c0.6,0,1.2,0.1,1.7,0.4c0.5,0.3,1,0.6,1.3,1c0.4,0.4,0.7,0.9,0.9,1.5s0.3,1.1,0.3,1.6
		c0,0.8-0.2,1.5-0.5,2.1s-0.7,1.2-1.3,1.6c-0.5,0.4-1.2,0.7-1.9,0.8l3.7,5.8h-0.8l-3.7-5.8h-5.2v5.8L34,183.6L34,183.6z M34.7,177.2
		h5.5c0.7,0,1.3-0.2,1.8-0.6c0.5-0.4,0.9-0.9,1.2-1.5s0.4-1.2,0.4-1.9s-0.2-1.3-0.5-1.9c-0.3-0.6-0.8-1.1-1.3-1.4s-1.1-0.5-1.8-0.5
		h-5.4L34.7,177.2L34.7,177.2z"/>
	<path class="st1" d="M48.3,170.1v13.5h-0.7v-14.9h0.6L59,182.5v-13.8h0.7v14.9H59L48.3,170.1z"/>
	<path class="st1" d="M73.7,183v0.7h-9.8v-14.9h9.7v0.7h-8.9v6.3h7.8v0.7h-7.8v6.6h9V183z"/>
	<path class="st1" d="M76.7,183.6v-14.9h0.7V183h9.1v0.7L76.7,183.6L76.7,183.6z"/>
	<path class="st1" d="M88.9,183.6v-14.9h0.7V183h9.1v0.7L88.9,183.6L88.9,183.6z"/>
	<path class="st1" d="M98.8,178.3v-0.7h6v0.7H98.8z"/>
	<path class="st1" d="M107.1,178.2c0-1,0.2-2,0.7-2.8c0.4-0.9,1-1.5,1.8-2.1c0.8-0.5,1.6-0.8,2.6-0.8s1.8,0.3,2.6,0.8
		c0.8,0.5,1.3,1.1,1.8,1.9v-6.9h0.7v14.2c0,0.1,0,0.3,0.1,0.3c0.1,0.1,0.2,0.1,0.3,0.1v0.6c-0.2,0-0.3,0-0.4,0
		c-0.2-0.1-0.4-0.2-0.5-0.3c-0.1-0.2-0.2-0.3-0.2-0.5v-1.3c-0.4,0.7-1.1,1.3-1.8,1.8c-0.8,0.4-1.6,0.7-2.4,0.7s-1.5-0.2-2.1-0.5
		s-1.2-0.7-1.7-1.3s-0.8-1.1-1.1-1.8C107.2,179.6,107.1,178.9,107.1,178.2z M116.5,180v-3.8c-0.2-0.6-0.5-1.1-1-1.5s-1-0.8-1.6-1.1
		s-1.1-0.4-1.7-0.4c-0.7,0-1.3,0.1-1.8,0.4c-0.5,0.3-1,0.7-1.4,1.1c-0.4,0.5-0.7,1-0.9,1.6c-0.2,0.6-0.3,1.2-0.3,1.8
		c0,0.7,0.1,1.3,0.3,1.9c0.2,0.6,0.6,1.1,1,1.6s0.9,0.8,1.5,1.1s1.2,0.4,1.8,0.4c0.4,0,0.8-0.1,1.3-0.2c0.5-0.2,0.9-0.4,1.3-0.7
		s0.8-0.6,1-1C116.3,180.8,116.5,180.4,116.5,180z"/>
	<path class="st1" d="M119.9,172l0.3-1.9h-0.3v-1.7h0.8v1.7l-0.3,1.9H119.9z"/>
	<path class="st1" d="M133.9,183v0.7H124v-14.9h9.7v0.7h-8.9v6.3h7.8v0.7h-7.8v6.6h9.1V183z"/>
	<path class="st1" d="M135.6,176.1c0-0.9,0.2-1.8,0.5-2.7s0.8-1.7,1.4-2.4c0.6-0.7,1.3-1.3,2.2-1.7s1.9-0.7,3-0.7
		c1.3,0,2.5,0.3,3.4,0.9c0.9,0.6,1.6,1.4,2.1,2.3l-0.6,0.3c-0.4-0.7-0.8-1.3-1.4-1.7s-1.1-0.7-1.7-0.9c-0.6-0.2-1.2-0.3-1.8-0.3
		c-1,0-1.9,0.2-2.7,0.6c-0.8,0.4-1.4,0.9-2,1.6c-0.5,0.7-0.9,1.4-1.2,2.2s-0.4,1.6-0.4,2.4c0,0.9,0.2,1.8,0.5,2.6s0.8,1.6,1.3,2.2
		s1.2,1.2,2,1.5c0.8,0.4,1.6,0.6,2.5,0.6c0.6,0,1.3-0.1,1.9-0.3s1.3-0.5,1.8-1c0.6-0.4,1-1,1.4-1.7l0.7,0.3
		c-0.3,0.7-0.8,1.4-1.5,1.9c-0.6,0.5-1.4,0.9-2.1,1.2c-0.8,0.3-1.5,0.4-2.3,0.4c-1,0-1.9-0.2-2.8-0.7c-0.9-0.4-1.6-1-2.2-1.8
		s-1.1-1.6-1.4-2.5S135.6,177,135.6,176.1z"/>
	<path class="st1" d="M162.6,168.7v14.9h-0.7v-7.3H152v7.3h-0.7v-14.9h0.7v7h9.9v-7H162.6z"/>
	<path class="st1" d="M176.4,183v0.7h-9.8v-14.9h9.7v0.7h-8.9v6.3h7.8v0.7h-7.8v6.6h9V183z"/>
	<path class="st1" d="M179.5,183.6v-14.9h6.1c0.6,0,1.2,0.1,1.7,0.4c0.5,0.3,1,0.6,1.3,1c0.4,0.4,0.7,0.9,0.9,1.5s0.3,1.1,0.3,1.6
		c0,0.8-0.2,1.5-0.5,2.1c-0.3,0.7-0.7,1.2-1.3,1.6c-0.5,0.4-1.2,0.7-1.9,0.8l3.7,5.8H189l-3.7-5.8h-5.2v5.8L179.5,183.6L179.5,183.6
		z M180.2,177.2h5.5c0.7,0,1.3-0.2,1.8-0.6c0.5-0.4,0.9-0.9,1.2-1.5s0.4-1.2,0.4-1.9s-0.2-1.3-0.5-1.9c-0.3-0.6-0.8-1.1-1.3-1.4
		c-0.5-0.4-1.1-0.5-1.8-0.5h-5.4v7.8H180.2z"/>
	<path class="st1" d="M203.1,169.4h-5.6v14.2h-0.7v-14.2h-5.6v-0.7h11.9L203.1,169.4L203.1,169.4z"/>
</g>
</svg>
