<?xml version="1.0" encoding="utf-8"?>
<!-- Generator: Adobe Illustrator 26.0.1, SVG Export Plug-In . SVG Version: 6.00 Build 0)  -->
<svg version="1.1" id="Layer_1" xmlns="http://www.w3.org/2000/svg" xmlns:xlink="http://www.w3.org/1999/xlink" x="0px" y="0px"
	 viewBox="0 0 205 185.4" style="enable-background:new 0 0 205 185.4;" xml:space="preserve">
<style type="text/css">
	.st0{fill:#70CDE1;}
	.st1{fill:#70CDE1;stroke:#71CDE0;stroke-width:0.5;stroke-miterlimit:10;}
	.st2{fill:#71CDE0;stroke:#71CDE0;stroke-width:0.5;stroke-miterlimit:10;}
	.st3{fill:#C8D7EF;stroke:#C9D7EF;stroke-miterlimit:10;}
	.st4{fill:#C8D7EF;stroke:#CAD7EE;stroke-width:0.5;stroke-miterlimit:10;}
	.st5{fill:#C8D7EF;stroke:#C9D7EF;stroke-width:0.5;stroke-miterlimit:10;}
	.st6{fill:#71CDE0;stroke:#71CDE0;stroke-miterlimit:10;}
	.st7{fill:#7D1952;stroke:#7D1952;stroke-miterlimit:10;}
	.st8{fill:#7D1952;stroke:#7D1952;stroke-width:0.5;stroke-miterlimit:10;}
</style>
<g id="Version_4">
	<g>
		<g>
			<path class="st0" d="M-126.2,232c9.1-9.1,18-14.5,25.1-14.5c2.2,0,3.9,1.7,3.9,3.8c0,6.3-19,37-53.8,55.1
				c-0.3,0.7-0.6,1.5-0.7,2.2c-6.1,20.5-19,32.5-41,37c10.5,8.2,17.2,20.4,27.5,31c16.5-15.5,38.4-24.3,60.9-24.3
				c26.1,0,47.3,10.2,47.3,22.7c0,13.8-20.8,25.1-46.4,25.1c-31.8,0-48.7-9.2-60.5-20.6c-9.1,7.5-16.6,16.9-21.2,28.2l-1.1-0.4
				c4.7-11.6,11.7-21.6,20.2-29.8c-10.6-10.9-17.4-23.3-28.3-31.5c-6,1-12.7,1.5-20.1,1.5c-14.6,0-26.5-3.2-26.5-7.1
				c0-2.8,7.3-5,16.2-5c10.7,0,18.7,2.2,25.2,5.7c19.9-6,35.8-18.8,43.7-32.2c-14.2,6.6-31.1,11-50.1,11c-28.2,0-51-14.1-51-31.4
				c0-23.4,34.9-45.9,72.1-45.9C-163.8,212.4-144.6,216.4-126.2,232z M-126.7,232.7c-18.7-15.3-37.1-19.1-58-19.1
				c-37,0-71.1,21.5-71.1,44.8c0,16.7,22.3,30.3,49.9,30.3c19.5,0,36.7-4.7,51.2-11.7l1.5-3.3C-146.1,257.1-136.5,242.7-126.7,232.7
				z M-201.2,311.5c-6.3-3.2-13.8-5.2-23.7-5.2c-7.8,0-14.6,1.8-14.6,3.9c0,2.4,7.3,4.3,16,4.3
				C-215.7,314.5-208.3,313.4-201.2,311.5z M-163,348.7c11.7,11.2,28.5,20.2,59.6,20.2c25,0,45.3-10.7,45.3-24
				c0-9.9-19.1-17.9-42.7-17.9C-121.3,327.1-145.1,334.2-163,348.7z M-150.4,274.5c33.6-18,51.9-47.6,51.9-53.3
				c0-1.4-1.1-2.6-2.5-2.6c-6.7,0-15.3,5.4-24,14.4c1.8,1.4,3.5,3.1,5.2,4.7l-0.6,0.6c-1.8-1.7-3.5-3.2-5.2-4.6
				C-135.4,244-145,258.5-150.4,274.5z"/>
		</g>
	</g>
	<g>
		<path class="st1" d="M-256,387c0-0.9,0.2-1.8,0.5-2.7s0.8-1.7,1.4-2.4c0.6-0.7,1.3-1.3,2.2-1.7c0.9-0.4,1.9-0.7,3-0.7
			c1.3,0,2.5,0.3,3.4,0.9c0.9,0.6,1.6,1.4,2.1,2.3l-0.6,0.3c-0.4-0.7-0.8-1.3-1.4-1.7c-0.5-0.4-1.1-0.7-1.7-0.9
			c-0.6-0.2-1.2-0.3-1.8-0.3c-1,0-1.9,0.2-2.7,0.6c-0.8,0.4-1.4,0.9-2,1.6c-0.5,0.7-0.9,1.4-1.2,2.2c-0.3,0.8-0.4,1.6-0.4,2.4
			c0,0.9,0.2,1.8,0.5,2.6c0.3,0.8,0.8,1.6,1.3,2.2s1.2,1.2,2,1.5c0.8,0.4,1.6,0.6,2.5,0.6c0.6,0,1.3-0.1,1.9-0.3
			c0.7-0.2,1.3-0.5,1.8-1s1-1,1.4-1.7l0.7,0.3c-0.3,0.7-0.8,1.4-1.5,1.9c-0.6,0.5-1.4,0.9-2.1,1.2c-0.8,0.3-1.5,0.4-2.3,0.4
			c-1,0-1.9-0.2-2.8-0.7c-0.9-0.4-1.6-1-2.2-1.8c-0.6-0.7-1.1-1.6-1.4-2.5C-255.8,388.8-256,387.9-256,387z"/>
		<path class="st1" d="M-234.6,394.7c-1,0-2-0.2-2.8-0.6c-0.9-0.4-1.6-1-2.2-1.7c-0.6-0.7-1.1-1.5-1.4-2.4c-0.3-0.9-0.5-1.8-0.5-2.8
			c0-1,0.2-1.9,0.5-2.8c0.3-0.9,0.8-1.7,1.5-2.4c0.6-0.7,1.4-1.3,2.2-1.7c0.8-0.4,1.8-0.6,2.7-0.6c1,0,2,0.2,2.8,0.7
			c0.9,0.4,1.6,1,2.2,1.7c0.6,0.7,1.1,1.5,1.4,2.4c0.3,0.9,0.5,1.8,0.5,2.7c0,1-0.2,2-0.5,2.9c-0.4,0.9-0.8,1.7-1.5,2.4
			s-1.4,1.3-2.2,1.7C-232.7,394.5-233.6,394.7-234.6,394.7z M-240.8,387.1c0,0.9,0.2,1.8,0.5,2.6c0.3,0.8,0.7,1.6,1.3,2.2
			c0.6,0.6,1.2,1.2,2,1.5c0.8,0.4,1.6,0.6,2.5,0.6c0.9,0,1.8-0.2,2.5-0.6c0.8-0.4,1.4-0.9,2-1.6c0.5-0.7,1-1.4,1.3-2.2
			c0.3-0.8,0.4-1.6,0.4-2.5c0-0.9-0.2-1.8-0.5-2.6s-0.7-1.6-1.3-2.2c-0.6-0.6-1.2-1.2-2-1.5s-1.6-0.6-2.5-0.6
			c-0.9,0-1.8,0.2-2.6,0.6c-0.8,0.4-1.4,0.9-2,1.6c-0.5,0.7-1,1.4-1.3,2.2C-240.7,385.4-240.8,386.2-240.8,387.1z"/>
		<path class="st1" d="M-224.7,394.6v-14.9h6.1c0.6,0,1.2,0.1,1.7,0.4c0.5,0.3,1,0.6,1.3,1c0.4,0.4,0.7,0.9,0.9,1.5s0.3,1.1,0.3,1.6
			c0,0.8-0.2,1.5-0.5,2.1c-0.3,0.7-0.7,1.2-1.3,1.6c-0.5,0.4-1.2,0.7-1.9,0.8l3.7,5.8h-0.8l-3.7-5.8h-5.2v5.8H-224.7z M-223.9,388.1
			h5.5c0.7,0,1.3-0.2,1.8-0.6s0.9-0.9,1.2-1.5c0.3-0.6,0.4-1.2,0.4-1.9c0-0.7-0.2-1.3-0.5-1.9c-0.3-0.6-0.8-1.1-1.3-1.4
			s-1.1-0.5-1.8-0.5h-5.4V388.1z"/>
		<path class="st1" d="M-210.4,381v13.5h-0.7v-14.9h0.6l10.9,13.8v-13.8h0.7v14.9h-0.8L-210.4,381z"/>
		<path class="st1" d="M-185,393.9v0.7h-9.8v-14.9h9.7v0.7h-8.9v6.3h7.8v0.7h-7.8v6.6H-185z"/>
		<path class="st1" d="M-181.9,394.6v-14.9h0.7v14.2h9.1v0.7H-181.9z"/>
		<path class="st1" d="M-169.8,394.6v-14.9h0.7v14.2h9.1v0.7H-169.8z"/>
		<path class="st1" d="M-159.9,389.2v-0.7h6v0.7H-159.9z"/>
		<path class="st1" d="M-151.6,389.1c0-1,0.2-2,0.7-2.8c0.4-0.9,1-1.5,1.8-2.1c0.8-0.5,1.6-0.8,2.6-0.8c1,0,1.8,0.3,2.6,0.8
			c0.8,0.5,1.3,1.1,1.8,1.9v-6.9h0.7v14.2c0,0.1,0,0.3,0.1,0.3c0.1,0.1,0.2,0.1,0.3,0.1v0.6c-0.2,0-0.3,0-0.4,0
			c-0.2-0.1-0.4-0.2-0.5-0.3c-0.1-0.2-0.2-0.3-0.2-0.5v-1.3c-0.4,0.7-1.1,1.3-1.8,1.8c-0.8,0.4-1.6,0.7-2.4,0.7
			c-0.8,0-1.5-0.2-2.1-0.5c-0.6-0.3-1.2-0.7-1.7-1.3s-0.8-1.1-1.1-1.8C-151.4,390.5-151.6,389.8-151.6,389.1z M-142.2,390.9v-3.8
			c-0.2-0.6-0.5-1.1-1-1.5s-1-0.8-1.6-1.1c-0.6-0.3-1.1-0.4-1.7-0.4c-0.7,0-1.3,0.1-1.8,0.4c-0.5,0.3-1,0.7-1.4,1.1
			c-0.4,0.5-0.7,1-0.9,1.6c-0.2,0.6-0.3,1.2-0.3,1.8c0,0.7,0.1,1.3,0.3,1.9c0.2,0.6,0.6,1.1,1,1.6c0.4,0.5,0.9,0.8,1.5,1.1
			c0.6,0.3,1.2,0.4,1.8,0.4c0.4,0,0.8-0.1,1.3-0.2c0.5-0.2,0.9-0.4,1.3-0.7s0.8-0.6,1-1C-142.3,391.8-142.2,391.4-142.2,390.9z"/>
		<path class="st1" d="M-138.8,382.9l0.3-1.9h-0.3v-1.7h0.8v1.7l-0.3,1.9H-138.8z"/>
		<path class="st1" d="M-124.8,393.9v0.7h-9.8v-14.9h9.7v0.7h-8.9v6.3h7.8v0.7h-7.8v6.6H-124.8z"/>
		<path class="st1" d="M-123.1,387c0-0.9,0.2-1.8,0.5-2.7s0.8-1.7,1.4-2.4c0.6-0.7,1.3-1.3,2.2-1.7c0.9-0.4,1.9-0.7,3-0.7
			c1.3,0,2.5,0.3,3.4,0.9c0.9,0.6,1.6,1.4,2.1,2.3l-0.6,0.3c-0.4-0.7-0.8-1.3-1.4-1.7s-1.1-0.7-1.7-0.9c-0.6-0.2-1.2-0.3-1.8-0.3
			c-1,0-1.9,0.2-2.7,0.6c-0.8,0.4-1.4,0.9-2,1.6c-0.5,0.7-0.9,1.4-1.2,2.2c-0.3,0.8-0.4,1.6-0.4,2.4c0,0.9,0.2,1.8,0.5,2.6
			s0.8,1.6,1.3,2.2s1.2,1.2,2,1.5c0.8,0.4,1.6,0.6,2.5,0.6c0.6,0,1.3-0.1,1.9-0.3s1.3-0.5,1.8-1c0.6-0.4,1-1,1.4-1.7l0.7,0.3
			c-0.3,0.7-0.8,1.4-1.5,1.9c-0.6,0.5-1.4,0.9-2.1,1.2c-0.8,0.3-1.5,0.4-2.3,0.4c-1,0-1.9-0.2-2.8-0.7c-0.9-0.4-1.6-1-2.2-1.8
			s-1.1-1.6-1.4-2.5S-123.1,387.9-123.1,387z"/>
		<path class="st1" d="M-96.1,379.6v14.9h-0.7v-7.3h-9.9v7.3h-0.7v-14.9h0.7v7h9.9v-7H-96.1z"/>
		<path class="st1" d="M-82.2,393.9v0.7h-9.8v-14.9h9.7v0.7h-8.9v6.3h7.8v0.7h-7.8v6.6H-82.2z"/>
		<path class="st1" d="M-79.2,394.6v-14.9h6.1c0.6,0,1.2,0.1,1.7,0.4c0.5,0.3,1,0.6,1.3,1c0.4,0.4,0.7,0.9,0.9,1.5s0.3,1.1,0.3,1.6
			c0,0.8-0.2,1.5-0.5,2.1c-0.3,0.7-0.7,1.2-1.3,1.6c-0.5,0.4-1.2,0.7-1.9,0.8l3.7,5.8h-0.8l-3.7-5.8h-5.2v5.8H-79.2z M-78.4,388.1
			h5.5c0.7,0,1.3-0.2,1.8-0.6c0.5-0.4,0.9-0.9,1.2-1.5c0.3-0.6,0.4-1.2,0.4-1.9c0-0.7-0.2-1.3-0.5-1.9c-0.3-0.6-0.8-1.1-1.3-1.4
			c-0.5-0.4-1.1-0.5-1.8-0.5h-5.4V388.1z"/>
		<path class="st1" d="M-55.6,380.3h-5.6v14.2h-0.7v-14.2h-5.6v-0.7h11.9V380.3z"/>
	</g>
	<g>
		<g>
			<path class="st2" d="M-161,350.2c0-0.2,0.1-0.3,0.4-0.5c7.9-4.2,14.5-7.2,21.5-7.2c0.6,0,1.6,0.1,2.4,0.3l0.4-0.3l2.4-0.2
				l0.2,0.6c-6.5,5.2-10.6,9.7-10.6,10.9c0,0.3,0.3,0.5,0.5,0.5c2.5,0,6.8-2,11-4.5c0.2,0,0.4,0.1,0.4,0.3c0,0.2-0.1,0.3-0.4,0.5
				c-3.9,2.2-8,4.4-11.1,4.4c-0.9,0-1.4-0.6-1.4-1.2c0-0.9,0.6-2.7,2.8-5c-5.3,4-10.5,6.1-13,6.1c-1.1,0-1.8-0.6-1.8-1.6
				c0-1.4,0.4-3.2,4.2-6.5c-2.1,0.9-3.6,1.7-7.4,3.7C-160.8,350.5-161,350.4-161,350.2z M-137.3,343.3l-1.8-0.2
				c-6.3,0-17.2,8.2-17.2,10.4c0,0.4,0.2,0.6,0.6,0.6c2,0,7.7-2.2,13.9-7C-140.6,346-139,344.8-137.3,343.3z"/>
			<path class="st2" d="M-133.4,350.2c0-0.2,0.1-0.3,0.4-0.5c4-2.4,6.7-4.1,11.3-7.2c0.7,0,2-0.1,2.8-0.2l0.2,0.6
				c-6.5,5.9-10.1,9.1-10.1,10.4c0,0.7,0.6,0.9,1.2,0.9c3.6,0,13.2-6.8,18.5-11.7c0.7,0,2-0.1,2.8-0.2l0.2,0.6
				c-6.5,5.9-9.8,8.9-9.8,10.6c0,0.5,0.5,0.7,1.2,0.7c1.8,0,5-1.8,9.4-4.5c0.2,0,0.4,0.1,0.4,0.3c0,0.2-0.1,0.3-0.4,0.5
				c-4,2.5-7.4,4.5-9.5,4.5c-1.4,0-2.7-0.6-2.7-2c0-1.2,0.6-2.8,2.6-4.7c-3.9,2.8-9.6,6.7-12.8,6.7c-1.4,0-2.5-0.6-2.5-2.1
				s1.8-4.1,5.1-7.3c-2.7,1.8-3.9,2.5-7.8,4.9C-133.2,350.5-133.4,350.4-133.4,350.2z"/>
			<path class="st2" d="M-105.7,350.2c0-0.2,0.1-0.3,0.4-0.5c3.8-2.2,7.5-4.4,14-9.2c1.2-2.4,2.7-4.9,4.1-4.9c0.5,0,0.9,0.3,0.9,0.8
				c0,1.3-2.4,2.1-4.5,4.3c-0.6,1-0.6,1.7-0.6,2.3c0,0.6,0.1,1,0.1,1.8c0,3.8-7,7.2-7,8.9c0,0.4,0.2,0.6,0.7,0.6
				c2.8,0,6.5-1.9,10.7-4.5c0.2,0,0.4,0.1,0.4,0.3c0,0.2-0.1,0.3-0.4,0.5c-3.8,2.3-7.7,4.4-10.8,4.4c-1.4,0-1.9-0.6-1.9-1.8
				c0-4.3,7.5-7.3,7.5-8.9v-0.8c0-0.6,0-1,0.3-1.7c-5.8,4.1-8.9,6.1-13.5,8.8C-105.5,350.5-105.7,350.4-105.7,350.2z"/>
			<path class="st2" d="M-87.3,350.2c0-0.2,0.1-0.3,0.4-0.5c7.9-4.2,14.5-7.2,21.5-7.2c0.6,0,1.6,0.1,2.4,0.3l0.4-0.3l2.4-0.2
				l0.2,0.6c-6.5,5.2-10.6,9.7-10.6,10.9c0,0.3,0.3,0.5,0.5,0.5c2.5,0,6.8-2,11-4.5c0.2,0,0.4,0.1,0.4,0.3c0,0.2-0.1,0.3-0.4,0.5
				c-3.9,2.2-8,4.4-11.1,4.4c-0.9,0-1.4-0.6-1.4-1.2c0-0.9,0.6-2.7,2.8-5c-5.3,4-10.5,6.1-13,6.1c-1.1,0-1.8-0.6-1.8-1.6
				c0-1.4,0.4-3.2,4.2-6.5c-2.1,0.9-3.6,1.7-7.4,3.7C-87.1,350.5-87.3,350.4-87.3,350.2z M-63.6,343.3l-1.8-0.2
				c-6.3,0-17.2,8.2-17.2,10.4c0,0.4,0.2,0.6,0.6,0.6c2,0,7.7-2.2,13.9-7C-66.8,346-65.2,344.8-63.6,343.3z"/>
		</g>
	</g>
</g>
<g id="Version_3">
	<g>
		<g>
			<path class="st3" d="M132.5,232c9.1-9.1,18-14.5,25.1-14.5c2.2,0,3.9,1.7,3.9,3.8c0,6.3-19,37-53.8,55.1
				c-0.3,0.7-0.6,1.5-0.7,2.2c-6.1,20.5-19,32.5-41,37c10.5,8.2,17.2,20.4,27.5,31c16.5-15.5,38.4-24.3,60.9-24.3
				c26.1,0,47.3,10.2,47.3,22.7c0,13.8-20.8,25.1-46.4,25.1c-31.8,0-48.7-9.2-60.5-20.6c-9.1,7.5-16.6,16.9-21.2,28.2l-1.1-0.4
				c4.7-11.6,11.7-21.6,20.2-29.8C82,336.4,75.2,324,64.3,315.8c-6,1-12.7,1.5-20.1,1.5c-14.6,0-26.5-3.2-26.5-7.1
				c0-2.8,7.3-5,16.2-5c10.7,0,18.7,2.2,25.2,5.7c19.9-6,35.8-18.8,43.7-32.2c-14.2,6.6-31.1,11-50.1,11c-28.2,0-51-14.1-51-31.4
				c0-23.4,34.9-45.9,72.1-45.9C94.9,212.4,114.1,216.4,132.5,232z M132,232.7c-18.7-15.3-37.1-19.1-58-19.1
				c-37,0-71.1,21.5-71.1,44.8c0,16.7,22.3,30.3,49.9,30.3c19.5,0,36.7-4.7,51.2-11.7l1.5-3.3C112.6,257.1,122.2,242.7,132,232.7z
				 M57.5,311.5c-6.3-3.2-13.8-5.2-23.7-5.2c-7.8,0-14.6,1.8-14.6,3.9c0,2.4,7.3,4.3,16,4.3C43,314.5,50.4,313.4,57.5,311.5z
				 M95.7,348.7c11.7,11.2,28.5,20.2,59.6,20.2c25,0,45.3-10.7,45.3-24c0-9.9-19.1-17.9-42.7-17.9
				C137.4,327.1,113.5,334.2,95.7,348.7z M108.2,274.5c33.6-18,51.9-47.6,51.9-53.3c0-1.4-1.1-2.6-2.5-2.6c-6.7,0-15.3,5.4-24,14.4
				c1.8,1.4,3.5,3.1,5.2,4.7l-0.6,0.6c-1.8-1.7-3.5-3.2-5.2-4.6C123.3,244,113.7,258.5,108.2,274.5z"/>
		</g>
	</g>
	<g>
		<g>
			<path class="st4" d="M97.6,350.2c0-0.2,0.1-0.3,0.4-0.5c7.9-4.2,14.5-7.2,21.5-7.2c0.6,0,1.6,0.1,2.4,0.3l0.4-0.3l2.4-0.2
				l0.2,0.6c-6.5,5.2-10.6,9.7-10.6,10.9c0,0.3,0.3,0.5,0.5,0.5c2.5,0,6.8-2,11-4.5c0.2,0,0.4,0.1,0.4,0.3c0,0.2-0.1,0.3-0.4,0.5
				c-3.9,2.2-8,4.4-11.1,4.4c-0.9,0-1.4-0.6-1.4-1.2c0-0.9,0.6-2.7,2.8-5c-5.3,4-10.5,6.1-13,6.1c-1.1,0-1.8-0.6-1.8-1.6
				c0-1.4,0.4-3.2,4.2-6.5c-2.1,0.9-3.6,1.7-7.4,3.7C97.8,350.5,97.6,350.4,97.6,350.2z M121.3,343.3l-1.8-0.2
				c-6.3,0-17.2,8.2-17.2,10.4c0,0.4,0.2,0.6,0.6,0.6c2,0,7.7-2.2,13.9-7C118.1,346,119.7,344.8,121.3,343.3z"/>
			<path class="st4" d="M125.3,350.2c0-0.2,0.1-0.3,0.4-0.5c4-2.4,6.7-4.1,11.3-7.2c0.7,0,2-0.1,2.8-0.2l0.2,0.6
				c-6.5,5.9-10.1,9.1-10.1,10.4c0,0.7,0.6,0.9,1.2,0.9c3.6,0,13.2-6.8,18.5-11.7c0.7,0,2-0.1,2.8-0.2l0.2,0.6
				c-6.5,5.9-9.8,8.9-9.8,10.6c0,0.5,0.5,0.7,1.2,0.7c1.8,0,5-1.8,9.4-4.5c0.2,0,0.4,0.1,0.4,0.3c0,0.2-0.1,0.3-0.4,0.5
				c-4,2.5-7.4,4.5-9.5,4.5c-1.4,0-2.7-0.6-2.7-2c0-1.2,0.6-2.8,2.6-4.7c-3.9,2.8-9.6,6.7-12.8,6.7c-1.4,0-2.5-0.6-2.5-2.1
				s1.8-4.1,5.1-7.3c-2.7,1.8-3.9,2.5-7.8,4.9C125.5,350.5,125.3,350.4,125.3,350.2z"/>
			<path class="st4" d="M153,350.2c0-0.2,0.1-0.3,0.4-0.5c3.8-2.2,7.5-4.4,14-9.2c1.2-2.4,2.7-4.9,4.1-4.9c0.5,0,0.9,0.3,0.9,0.8
				c0,1.3-2.4,2.1-4.5,4.3c-0.6,1-0.6,1.7-0.6,2.3c0,0.6,0.1,1,0.1,1.8c0,3.8-7,7.2-7,8.9c0,0.4,0.2,0.6,0.7,0.6
				c2.8,0,6.5-1.9,10.7-4.5c0.2,0,0.4,0.1,0.4,0.3c0,0.2-0.1,0.3-0.4,0.5c-3.8,2.3-7.7,4.4-10.8,4.4c-1.4,0-1.9-0.6-1.9-1.8
				c0-4.3,7.5-7.3,7.5-8.9v-0.8c0-0.6,0-1,0.3-1.7c-5.8,4.1-8.9,6.1-13.5,8.8C153.2,350.5,153,350.4,153,350.2z"/>
			<path class="st4" d="M171.4,350.2c0-0.2,0.1-0.3,0.4-0.5c7.9-4.2,14.5-7.2,21.5-7.2c0.6,0,1.6,0.1,2.4,0.3l0.4-0.3l2.4-0.2
				l0.2,0.6c-6.5,5.2-10.6,9.7-10.6,10.9c0,0.3,0.3,0.5,0.5,0.5c2.5,0,6.8-2,11-4.5c0.2,0,0.4,0.1,0.4,0.3c0,0.2-0.1,0.3-0.4,0.5
				c-3.9,2.2-8,4.4-11.1,4.4c-0.9,0-1.4-0.6-1.4-1.2c0-0.9,0.6-2.7,2.8-5c-5.3,4-10.5,6.1-13,6.1c-1.1,0-1.8-0.6-1.8-1.6
				c0-1.4,0.4-3.2,4.2-6.5c-2.1,0.9-3.6,1.7-7.4,3.7C171.6,350.5,171.4,350.4,171.4,350.2z M195.1,343.3l-1.8-0.2
				c-6.3,0-17.2,8.2-17.2,10.4c0,0.4,0.2,0.6,0.6,0.6c2,0,7.7-2.2,13.9-7C191.9,346,193.5,344.8,195.1,343.3z"/>
		</g>
	</g>
	<g>
		<path class="st5" d="M2.7,387c0-0.9,0.2-1.8,0.5-2.7c0.3-0.9,0.8-1.7,1.4-2.4c0.6-0.7,1.3-1.3,2.2-1.7c0.9-0.4,1.9-0.7,3-0.7
			c1.3,0,2.5,0.3,3.4,0.9c0.9,0.6,1.6,1.4,2.1,2.3l-0.6,0.3c-0.4-0.7-0.8-1.3-1.4-1.7s-1.1-0.7-1.7-0.9c-0.6-0.2-1.2-0.3-1.8-0.3
			c-1,0-1.9,0.2-2.7,0.6c-0.8,0.4-1.4,0.9-2,1.6c-0.5,0.7-0.9,1.4-1.2,2.2c-0.3,0.8-0.4,1.6-0.4,2.4c0,0.9,0.2,1.8,0.5,2.6
			s0.8,1.6,1.3,2.2c0.6,0.6,1.2,1.2,2,1.5c0.8,0.4,1.6,0.6,2.5,0.6c0.6,0,1.3-0.1,1.9-0.3s1.3-0.5,1.8-1s1-1,1.4-1.7l0.7,0.3
			c-0.3,0.7-0.8,1.4-1.5,1.9c-0.6,0.5-1.4,0.9-2.1,1.2c-0.8,0.3-1.5,0.4-2.3,0.4c-1,0-1.9-0.2-2.8-0.7c-0.9-0.4-1.6-1-2.2-1.8
			s-1.1-1.6-1.4-2.5S2.7,387.9,2.7,387z"/>
		<path class="st5" d="M24.1,394.7c-1,0-2-0.2-2.8-0.6s-1.6-1-2.2-1.7s-1.1-1.5-1.4-2.4c-0.3-0.9-0.5-1.8-0.5-2.8
			c0-1,0.2-1.9,0.5-2.8c0.3-0.9,0.8-1.7,1.5-2.4c0.6-0.7,1.4-1.3,2.2-1.7c0.8-0.4,1.8-0.6,2.7-0.6c1,0,2,0.2,2.8,0.7
			c0.9,0.4,1.6,1,2.2,1.7c0.6,0.7,1.1,1.5,1.4,2.4s0.5,1.8,0.5,2.7c0,1-0.2,2-0.5,2.9c-0.3,0.9-0.8,1.7-1.5,2.4s-1.4,1.3-2.2,1.7
			C26,394.5,25,394.7,24.1,394.7z M17.8,387.1c0,0.9,0.2,1.8,0.5,2.6c0.3,0.8,0.7,1.6,1.3,2.2s1.2,1.2,2,1.5
			c0.8,0.4,1.6,0.6,2.5,0.6c0.9,0,1.8-0.2,2.5-0.6c0.8-0.4,1.4-0.9,2-1.6c0.5-0.7,1-1.4,1.3-2.2c0.3-0.8,0.4-1.6,0.4-2.5
			c0-0.9-0.2-1.8-0.5-2.6c-0.3-0.8-0.7-1.6-1.3-2.2s-1.2-1.2-2-1.5c-0.8-0.4-1.6-0.6-2.5-0.6c-0.9,0-1.8,0.2-2.6,0.6
			c-0.8,0.4-1.4,0.9-2,1.6c-0.5,0.7-1,1.4-1.3,2.2C18,385.4,17.8,386.2,17.8,387.1z"/>
		<path class="st5" d="M34,394.6v-14.9h6.1c0.6,0,1.2,0.1,1.7,0.4c0.5,0.3,1,0.6,1.3,1c0.4,0.4,0.7,0.9,0.9,1.5s0.3,1.1,0.3,1.6
			c0,0.8-0.2,1.5-0.5,2.1s-0.7,1.2-1.3,1.6c-0.5,0.4-1.2,0.7-1.9,0.8l3.7,5.8h-0.8l-3.7-5.8h-5.2v5.8H34z M34.7,388.1h5.5
			c0.7,0,1.3-0.2,1.8-0.6c0.5-0.4,0.9-0.9,1.2-1.5c0.3-0.6,0.4-1.2,0.4-1.9c0-0.7-0.2-1.3-0.5-1.9c-0.3-0.6-0.8-1.1-1.3-1.4
			s-1.1-0.5-1.8-0.5h-5.4V388.1z"/>
		<path class="st5" d="M48.3,381v13.5h-0.7v-14.9h0.6L59,393.4v-13.8h0.7v14.9H59L48.3,381z"/>
		<path class="st5" d="M73.7,393.9v0.7h-9.8v-14.9h9.7v0.7h-8.9v6.3h7.8v0.7h-7.8v6.6H73.7z"/>
		<path class="st5" d="M76.7,394.6v-14.9h0.7v14.2h9.1v0.7H76.7z"/>
		<path class="st5" d="M88.9,394.6v-14.9h0.7v14.2h9.1v0.7H88.9z"/>
		<path class="st5" d="M98.8,389.2v-0.7h6v0.7H98.8z"/>
		<path class="st5" d="M107.1,389.1c0-1,0.2-2,0.7-2.8c0.4-0.9,1-1.5,1.8-2.1c0.8-0.5,1.6-0.8,2.6-0.8c1,0,1.8,0.3,2.6,0.8
			c0.8,0.5,1.3,1.1,1.8,1.9v-6.9h0.7v14.2c0,0.1,0,0.3,0.1,0.3c0.1,0.1,0.2,0.1,0.3,0.1v0.6c-0.2,0-0.3,0-0.4,0
			c-0.2-0.1-0.4-0.2-0.5-0.3c-0.1-0.2-0.2-0.3-0.2-0.5v-1.3c-0.4,0.7-1.1,1.3-1.8,1.8c-0.8,0.4-1.6,0.7-2.4,0.7
			c-0.8,0-1.5-0.2-2.1-0.5c-0.6-0.3-1.2-0.7-1.7-1.3s-0.8-1.1-1.1-1.8C107.2,390.5,107.1,389.8,107.1,389.1z M116.5,390.9v-3.8
			c-0.2-0.6-0.5-1.1-1-1.5s-1-0.8-1.6-1.1c-0.6-0.3-1.1-0.4-1.7-0.4c-0.7,0-1.3,0.1-1.8,0.4c-0.5,0.3-1,0.7-1.4,1.1
			c-0.4,0.5-0.7,1-0.9,1.6c-0.2,0.6-0.3,1.2-0.3,1.8c0,0.7,0.1,1.3,0.3,1.9c0.2,0.6,0.6,1.1,1,1.6c0.4,0.5,0.9,0.8,1.5,1.1
			c0.6,0.3,1.2,0.4,1.8,0.4c0.4,0,0.8-0.1,1.3-0.2c0.5-0.2,0.9-0.4,1.3-0.7s0.8-0.6,1-1C116.3,391.8,116.5,391.4,116.5,390.9z"/>
		<path class="st5" d="M119.9,382.9l0.3-1.9h-0.3v-1.7h0.8v1.7l-0.3,1.9H119.9z"/>
		<path class="st5" d="M133.9,393.9v0.7H124v-14.9h9.7v0.7h-8.9v6.3h7.8v0.7h-7.8v6.6H133.9z"/>
		<path class="st5" d="M135.6,387c0-0.9,0.2-1.8,0.5-2.7s0.8-1.7,1.4-2.4c0.6-0.7,1.3-1.3,2.2-1.7c0.9-0.4,1.9-0.7,3-0.7
			c1.3,0,2.5,0.3,3.4,0.9c0.9,0.6,1.6,1.4,2.1,2.3l-0.6,0.3c-0.4-0.7-0.8-1.3-1.4-1.7s-1.1-0.7-1.7-0.9c-0.6-0.2-1.2-0.3-1.8-0.3
			c-1,0-1.9,0.2-2.7,0.6c-0.8,0.4-1.4,0.9-2,1.6c-0.5,0.7-0.9,1.4-1.2,2.2c-0.3,0.8-0.4,1.6-0.4,2.4c0,0.9,0.2,1.8,0.5,2.6
			s0.8,1.6,1.3,2.2s1.2,1.2,2,1.5c0.8,0.4,1.6,0.6,2.5,0.6c0.6,0,1.3-0.1,1.9-0.3s1.3-0.5,1.8-1c0.6-0.4,1-1,1.4-1.7l0.7,0.3
			c-0.3,0.7-0.8,1.4-1.5,1.9c-0.6,0.5-1.4,0.9-2.1,1.2c-0.8,0.3-1.5,0.4-2.3,0.4c-1,0-1.9-0.2-2.8-0.7c-0.9-0.4-1.6-1-2.2-1.8
			s-1.1-1.6-1.4-2.5S135.6,387.9,135.6,387z"/>
		<path class="st5" d="M162.6,379.6v14.9h-0.7v-7.3h-9.9v7.3h-0.7v-14.9h0.7v7h9.9v-7H162.6z"/>
		<path class="st5" d="M176.4,393.9v0.7h-9.8v-14.9h9.7v0.7h-8.9v6.3h7.8v0.7h-7.8v6.6H176.4z"/>
		<path class="st5" d="M179.5,394.6v-14.9h6.1c0.6,0,1.2,0.1,1.7,0.4c0.5,0.3,1,0.6,1.3,1c0.4,0.4,0.7,0.9,0.9,1.5s0.3,1.1,0.3,1.6
			c0,0.8-0.2,1.5-0.5,2.1c-0.3,0.7-0.7,1.2-1.3,1.6c-0.5,0.4-1.2,0.7-1.9,0.8l3.7,5.8h-0.8l-3.7-5.8h-5.2v5.8H179.5z M180.2,388.1
			h5.5c0.7,0,1.3-0.2,1.8-0.6c0.5-0.4,0.9-0.9,1.2-1.5c0.3-0.6,0.4-1.2,0.4-1.9c0-0.7-0.2-1.3-0.5-1.9c-0.3-0.6-0.8-1.1-1.3-1.4
			c-0.5-0.4-1.1-0.5-1.8-0.5h-5.4V388.1z"/>
		<path class="st5" d="M203.1,380.3h-5.6v14.2h-0.7v-14.2h-5.6v-0.7h11.9V380.3z"/>
	</g>
</g>
<g id="Version_2">
	<g>
		<g>
			<path class="st6" d="M357.5,232c9.1-9.1,18-14.5,25.1-14.5c2.2,0,3.9,1.7,3.9,3.8c0,6.3-19,37-53.8,55.1
				c-0.3,0.7-0.6,1.5-0.7,2.2c-6.1,20.5-19,32.5-41,37c10.5,8.2,17.2,20.4,27.5,31c16.5-15.5,38.4-24.3,60.9-24.3
				c26.1,0,47.3,10.2,47.3,22.7c0,13.8-20.8,25.1-46.4,25.1c-31.8,0-48.7-9.2-60.5-20.6c-9.1,7.5-16.6,16.9-21.2,28.2l-1.1-0.4
				c4.7-11.6,11.7-21.6,20.2-29.8c-10.6-10.9-17.4-23.3-28.3-31.5c-6,1-12.7,1.5-20.1,1.5c-14.6,0-26.5-3.2-26.5-7.1
				c0-2.8,7.3-5,16.2-5c10.7,0,18.7,2.2,25.2,5.7c19.9-6,35.8-18.8,43.7-32.2c-14.2,6.6-31.1,11-50.1,11c-28.2,0-51-14.1-51-31.4
				c0-23.4,34.9-45.9,72.1-45.9C319.9,212.4,339.1,216.4,357.5,232z M357,232.7c-18.7-15.3-37.1-19.1-58-19.1
				c-37,0-71.1,21.5-71.1,44.8c0,16.7,22.3,30.3,49.9,30.3c19.5,0,36.7-4.7,51.2-11.7l1.5-3.3C337.6,257.1,347.2,242.7,357,232.7z
				 M282.5,311.5c-6.3-3.2-13.8-5.2-23.7-5.2c-7.8,0-14.6,1.8-14.6,3.9c0,2.4,7.3,4.3,16,4.3C268,314.5,275.4,313.4,282.5,311.5z
				 M320.7,348.7c11.7,11.2,28.5,20.2,59.6,20.2c25,0,45.3-10.7,45.3-24c0-9.9-19.1-17.9-42.7-17.9
				C362.4,327.1,338.5,334.2,320.7,348.7z M333.2,274.5c33.6-18,51.9-47.6,51.9-53.3c0-1.4-1.1-2.6-2.5-2.6c-6.7,0-15.3,5.4-24,14.4
				c1.8,1.4,3.5,3.1,5.2,4.7l-0.6,0.6c-1.8-1.7-3.5-3.2-5.2-4.6C348.3,244,338.7,258.5,333.2,274.5z"/>
		</g>
	</g>
	<g>
		<g>
			<path class="st2" d="M322.6,350.2c0-0.2,0.1-0.3,0.4-0.5c7.9-4.2,14.5-7.2,21.5-7.2c0.6,0,1.6,0.1,2.4,0.3l0.4-0.3l2.4-0.2
				l0.2,0.6c-6.5,5.2-10.6,9.7-10.6,10.9c0,0.3,0.3,0.5,0.5,0.5c2.5,0,6.8-2,11-4.5c0.2,0,0.4,0.1,0.4,0.3c0,0.2-0.1,0.3-0.4,0.5
				c-3.9,2.2-8,4.4-11.1,4.4c-0.9,0-1.4-0.6-1.4-1.2c0-0.9,0.6-2.7,2.8-5c-5.3,4-10.5,6.1-13,6.1c-1.1,0-1.8-0.6-1.8-1.6
				c0-1.4,0.4-3.2,4.2-6.5c-2.1,0.9-3.6,1.7-7.4,3.7C322.8,350.5,322.6,350.4,322.6,350.2z M346.3,343.3l-1.8-0.2
				c-6.3,0-17.2,8.2-17.2,10.4c0,0.4,0.2,0.6,0.6,0.6c2,0,7.7-2.2,13.9-7C343.1,346,344.7,344.8,346.3,343.3z"/>
			<path class="st2" d="M350.3,350.2c0-0.2,0.1-0.3,0.4-0.5c4-2.4,6.7-4.1,11.3-7.2c0.7,0,2-0.1,2.8-0.2l0.2,0.6
				c-6.5,5.9-10.1,9.1-10.1,10.4c0,0.7,0.6,0.9,1.2,0.9c3.6,0,13.2-6.8,18.5-11.7c0.7,0,2-0.1,2.8-0.2l0.2,0.6
				c-6.5,5.9-9.8,8.9-9.8,10.6c0,0.5,0.5,0.7,1.2,0.7c1.8,0,5-1.8,9.4-4.5c0.2,0,0.4,0.1,0.4,0.3c0,0.2-0.1,0.3-0.4,0.5
				c-4,2.5-7.4,4.5-9.5,4.5c-1.4,0-2.7-0.6-2.7-2c0-1.2,0.6-2.8,2.6-4.7c-3.9,2.8-9.6,6.7-12.8,6.7c-1.4,0-2.5-0.6-2.5-2.1
				s1.8-4.1,5.1-7.3c-2.7,1.8-3.9,2.5-7.8,4.9C350.5,350.5,350.3,350.4,350.3,350.2z"/>
			<path class="st2" d="M378,350.2c0-0.2,0.1-0.3,0.4-0.5c3.8-2.2,7.5-4.4,14-9.2c1.2-2.4,2.7-4.9,4.1-4.9c0.5,0,0.9,0.3,0.9,0.8
				c0,1.3-2.4,2.1-4.5,4.3c-0.6,1-0.6,1.7-0.6,2.3c0,0.6,0.1,1,0.1,1.8c0,3.8-7,7.2-7,8.9c0,0.4,0.2,0.6,0.7,0.6
				c2.8,0,6.5-1.9,10.7-4.5c0.2,0,0.4,0.1,0.4,0.3c0,0.2-0.1,0.3-0.4,0.5c-3.8,2.3-7.7,4.4-10.8,4.4c-1.4,0-1.9-0.6-1.9-1.8
				c0-4.3,7.5-7.3,7.5-8.9v-0.8c0-0.6,0-1,0.3-1.7c-5.8,4.1-8.9,6.1-13.5,8.8C378.2,350.5,378,350.4,378,350.2z"/>
			<path class="st2" d="M396.4,350.2c0-0.2,0.1-0.3,0.4-0.5c7.9-4.2,14.5-7.2,21.5-7.2c0.6,0,1.6,0.1,2.4,0.3l0.4-0.3l2.4-0.2
				l0.2,0.6c-6.5,5.2-10.6,9.7-10.6,10.9c0,0.3,0.3,0.5,0.5,0.5c2.5,0,6.8-2,11-4.5c0.2,0,0.4,0.1,0.4,0.3c0,0.2-0.1,0.3-0.4,0.5
				c-3.9,2.2-8,4.4-11.1,4.4c-0.9,0-1.4-0.6-1.4-1.2c0-0.9,0.6-2.7,2.8-5c-5.3,4-10.5,6.1-13,6.1c-1.1,0-1.8-0.6-1.8-1.6
				c0-1.4,0.4-3.2,4.2-6.5c-2.1,0.9-3.6,1.7-7.4,3.7C396.6,350.5,396.4,350.4,396.4,350.2z M420.1,343.3l-1.8-0.2
				c-6.3,0-17.2,8.2-17.2,10.4c0,0.4,0.2,0.6,0.6,0.6c2,0,7.7-2.2,13.9-7C416.9,346,418.5,344.8,420.1,343.3z"/>
		</g>
	</g>
	<g>
		<path class="st2" d="M227.7,387c0-0.9,0.2-1.8,0.5-2.7c0.3-0.9,0.8-1.7,1.4-2.4c0.6-0.7,1.3-1.3,2.2-1.7c0.9-0.4,1.9-0.7,3-0.7
			c1.3,0,2.5,0.3,3.4,0.9c0.9,0.6,1.6,1.4,2.1,2.3l-0.6,0.3c-0.4-0.7-0.8-1.3-1.4-1.7s-1.1-0.7-1.7-0.9c-0.6-0.2-1.2-0.3-1.8-0.3
			c-1,0-1.9,0.2-2.7,0.6c-0.8,0.4-1.4,0.9-2,1.6c-0.5,0.7-0.9,1.4-1.2,2.2c-0.3,0.8-0.4,1.6-0.4,2.4c0,0.9,0.2,1.8,0.5,2.6
			s0.8,1.6,1.3,2.2c0.6,0.6,1.2,1.2,2,1.5c0.8,0.4,1.6,0.6,2.5,0.6c0.6,0,1.3-0.1,1.9-0.3s1.3-0.5,1.8-1s1-1,1.4-1.7l0.7,0.3
			c-0.3,0.7-0.8,1.4-1.5,1.9c-0.6,0.5-1.4,0.9-2.1,1.2c-0.8,0.3-1.5,0.4-2.3,0.4c-1,0-1.9-0.2-2.8-0.7c-0.9-0.4-1.6-1-2.2-1.8
			s-1.1-1.6-1.4-2.5S227.7,387.9,227.7,387z"/>
		<path class="st2" d="M249.1,394.7c-1,0-2-0.2-2.8-0.6s-1.6-1-2.2-1.7s-1.1-1.5-1.4-2.4c-0.3-0.9-0.5-1.8-0.5-2.8
			c0-1,0.2-1.9,0.5-2.8c0.3-0.9,0.8-1.7,1.5-2.4c0.6-0.7,1.4-1.3,2.2-1.7c0.8-0.4,1.8-0.6,2.7-0.6c1,0,2,0.2,2.8,0.7
			c0.9,0.4,1.6,1,2.2,1.7c0.6,0.7,1.1,1.5,1.4,2.4s0.5,1.8,0.5,2.7c0,1-0.2,2-0.5,2.9c-0.3,0.9-0.8,1.7-1.5,2.4s-1.4,1.3-2.2,1.7
			C251,394.5,250,394.7,249.1,394.7z M242.8,387.1c0,0.9,0.2,1.8,0.5,2.6c0.3,0.8,0.7,1.6,1.3,2.2s1.2,1.2,2,1.5
			c0.8,0.4,1.6,0.6,2.5,0.6c0.9,0,1.8-0.2,2.5-0.6c0.8-0.4,1.4-0.9,2-1.6c0.5-0.7,1-1.4,1.3-2.2c0.3-0.8,0.4-1.6,0.4-2.5
			c0-0.9-0.2-1.8-0.5-2.6c-0.3-0.8-0.7-1.6-1.3-2.2s-1.2-1.2-2-1.5c-0.8-0.4-1.6-0.6-2.5-0.6c-0.9,0-1.8,0.2-2.6,0.6
			c-0.8,0.4-1.4,0.9-2,1.6c-0.5,0.7-1,1.4-1.3,2.2C243,385.4,242.8,386.2,242.8,387.1z"/>
		<path class="st2" d="M259,394.6v-14.9h6.1c0.6,0,1.2,0.1,1.7,0.4c0.5,0.3,1,0.6,1.3,1c0.4,0.4,0.7,0.9,0.9,1.5s0.3,1.1,0.3,1.6
			c0,0.8-0.2,1.5-0.5,2.1s-0.7,1.2-1.3,1.6c-0.5,0.4-1.2,0.7-1.9,0.8l3.7,5.8h-0.8l-3.7-5.8h-5.2v5.8H259z M259.7,388.1h5.5
			c0.7,0,1.3-0.2,1.8-0.6c0.5-0.4,0.9-0.9,1.2-1.5c0.3-0.6,0.4-1.2,0.4-1.9c0-0.7-0.2-1.3-0.5-1.9c-0.3-0.6-0.8-1.1-1.3-1.4
			s-1.1-0.5-1.8-0.5h-5.4V388.1z"/>
		<path class="st2" d="M273.3,381v13.5h-0.7v-14.9h0.6l10.9,13.8v-13.8h0.7v14.9H284L273.3,381z"/>
		<path class="st2" d="M298.7,393.9v0.7h-9.8v-14.9h9.7v0.7h-8.9v6.3h7.8v0.7h-7.8v6.6H298.7z"/>
		<path class="st2" d="M301.7,394.6v-14.9h0.7v14.2h9.1v0.7H301.7z"/>
		<path class="st2" d="M313.9,394.6v-14.9h0.7v14.2h9.1v0.7H313.9z"/>
		<path class="st2" d="M323.8,389.2v-0.7h6v0.7H323.8z"/>
		<path class="st2" d="M332.1,389.1c0-1,0.2-2,0.7-2.8c0.4-0.9,1-1.5,1.8-2.1c0.8-0.5,1.6-0.8,2.6-0.8c1,0,1.8,0.3,2.6,0.8
			c0.8,0.5,1.3,1.1,1.8,1.9v-6.9h0.7v14.2c0,0.1,0,0.3,0.1,0.3c0.1,0.1,0.2,0.1,0.3,0.1v0.6c-0.2,0-0.3,0-0.4,0
			c-0.2-0.1-0.4-0.2-0.5-0.3c-0.1-0.2-0.2-0.3-0.2-0.5v-1.3c-0.4,0.7-1.1,1.3-1.8,1.8c-0.8,0.4-1.6,0.7-2.4,0.7
			c-0.8,0-1.5-0.2-2.1-0.5c-0.6-0.3-1.2-0.7-1.7-1.3s-0.8-1.1-1.1-1.8C332.2,390.5,332.1,389.8,332.1,389.1z M341.5,390.9v-3.8
			c-0.2-0.6-0.5-1.1-1-1.5s-1-0.8-1.6-1.1c-0.6-0.3-1.1-0.4-1.7-0.4c-0.7,0-1.3,0.1-1.8,0.4c-0.5,0.3-1,0.7-1.4,1.1
			c-0.4,0.5-0.7,1-0.9,1.6c-0.2,0.6-0.3,1.2-0.3,1.8c0,0.7,0.1,1.3,0.3,1.9c0.2,0.6,0.6,1.1,1,1.6c0.4,0.5,0.9,0.8,1.5,1.1
			c0.6,0.3,1.2,0.4,1.8,0.4c0.4,0,0.8-0.1,1.3-0.2c0.5-0.2,0.9-0.4,1.3-0.7s0.8-0.6,1-1C341.3,391.8,341.5,391.4,341.5,390.9z"/>
		<path class="st2" d="M344.9,382.9l0.3-1.9h-0.3v-1.7h0.8v1.7l-0.3,1.9H344.9z"/>
		<path class="st2" d="M358.9,393.9v0.7H349v-14.9h9.7v0.7h-8.9v6.3h7.8v0.7h-7.8v6.6H358.9z"/>
		<path class="st2" d="M360.6,387c0-0.9,0.2-1.8,0.5-2.7s0.8-1.7,1.4-2.4c0.6-0.7,1.3-1.3,2.2-1.7c0.9-0.4,1.9-0.7,3-0.7
			c1.3,0,2.5,0.3,3.4,0.9c0.9,0.6,1.6,1.4,2.1,2.3l-0.6,0.3c-0.4-0.7-0.8-1.3-1.4-1.7s-1.1-0.7-1.7-0.9c-0.6-0.2-1.2-0.3-1.8-0.3
			c-1,0-1.9,0.2-2.7,0.6c-0.8,0.4-1.4,0.9-2,1.6c-0.5,0.7-0.9,1.4-1.2,2.2c-0.3,0.8-0.4,1.6-0.4,2.4c0,0.9,0.2,1.8,0.5,2.6
			s0.8,1.6,1.3,2.2s1.2,1.2,2,1.5c0.8,0.4,1.6,0.6,2.5,0.6c0.6,0,1.3-0.1,1.9-0.3s1.3-0.5,1.8-1c0.6-0.4,1-1,1.4-1.7l0.7,0.3
			c-0.3,0.7-0.8,1.4-1.5,1.9c-0.6,0.5-1.4,0.9-2.1,1.2c-0.8,0.3-1.5,0.4-2.3,0.4c-1,0-1.9-0.2-2.8-0.7c-0.9-0.4-1.6-1-2.2-1.8
			s-1.1-1.6-1.4-2.5S360.6,387.9,360.6,387z"/>
		<path class="st2" d="M387.6,379.6v14.9h-0.7v-7.3h-9.9v7.3h-0.7v-14.9h0.7v7h9.9v-7H387.6z"/>
		<path class="st2" d="M401.4,393.9v0.7h-9.8v-14.9h9.7v0.7h-8.9v6.3h7.8v0.7h-7.8v6.6H401.4z"/>
		<path class="st2" d="M404.5,394.6v-14.9h6.1c0.6,0,1.2,0.1,1.7,0.4c0.5,0.3,1,0.6,1.3,1c0.4,0.4,0.7,0.9,0.9,1.5s0.3,1.1,0.3,1.6
			c0,0.8-0.2,1.5-0.5,2.1c-0.3,0.7-0.7,1.2-1.3,1.6c-0.5,0.4-1.2,0.7-1.9,0.8l3.7,5.8h-0.8l-3.7-5.8h-5.2v5.8H404.5z M405.2,388.1
			h5.5c0.7,0,1.3-0.2,1.8-0.6c0.5-0.4,0.9-0.9,1.2-1.5c0.3-0.6,0.4-1.2,0.4-1.9c0-0.7-0.2-1.3-0.5-1.9c-0.3-0.6-0.8-1.1-1.3-1.4
			c-0.5-0.4-1.1-0.5-1.8-0.5h-5.4V388.1z"/>
		<path class="st2" d="M428.1,380.3h-5.6v14.2h-0.7v-14.2h-5.6v-0.7h11.9V380.3z"/>
	</g>
</g>
<g id="Version_1">
	<g>
		<g>
			<path class="st7" d="M132.5,21.1c9.1-9.1,18-14.5,25.1-14.5c2.2,0,3.9,1.7,3.9,3.8c0,6.3-19,37-53.8,55.1
				c-0.3,0.7-0.6,1.5-0.7,2.2c-6.1,20.5-19,32.5-41,37c10.5,8.2,17.2,20.4,27.5,31c16.5-15.5,38.4-24.3,60.9-24.3
				c26.1,0,47.3,10.2,47.3,22.7c0,13.8-20.8,25.1-46.4,25.1c-31.8,0-48.7-9.2-60.5-20.6c-9.1,7.5-16.6,16.9-21.2,28.2l-1.1-0.4
				c4.7-11.6,11.7-21.6,20.2-29.8c-10.6-10.9-17.4-23.3-28.3-31.5c-6,1-12.7,1.5-20.1,1.5c-14.6,0-26.5-3.2-26.5-7.1
				c0-2.8,7.3-5,16.2-5c10.7,0,18.7,2.2,25.2,5.7c19.9-6,35.8-18.8,43.7-32.2c-14.2,6.6-31.1,11-50.1,11c-28.2,0-51-14.1-51-31.4
				C1.7,24,36.6,1.5,73.8,1.5C94.9,1.5,114.1,5.4,132.5,21.1z M132,21.8C113.3,6.4,94.9,2.6,73.9,2.6C37,2.6,2.8,24.1,2.8,47.4
				c0,16.7,22.3,30.3,49.9,30.3c19.5,0,36.7-4.7,51.2-11.7l1.5-3.3C112.6,46.2,122.2,31.8,132,21.8z M57.5,100.5
				c-6.3-3.2-13.8-5.2-23.7-5.2c-7.8,0-14.6,1.8-14.6,3.9c0,2.4,7.3,4.3,16,4.3C43,103.6,50.4,102.5,57.5,100.5z M95.7,137.8
				c11.7,11.2,28.5,20.2,59.6,20.2c25,0,45.3-10.7,45.3-24c0-9.9-19.1-17.9-42.7-17.9C137.4,116.2,113.5,123.3,95.7,137.8z
				 M108.2,63.6c33.6-18,51.9-47.6,51.9-53.3c0-1.4-1.1-2.7-2.5-2.7c-6.7,0-15.3,5.4-24,14.4c1.8,1.4,3.5,3.1,5.2,4.7l-0.6,0.6
				c-1.8-1.7-3.5-3.2-5.2-4.6C123.3,33,113.7,47.6,108.2,63.6z"/>
		</g>
	</g>
	<g>
		<g>
			<path class="st8" d="M97.6,139.3c0-0.2,0.1-0.3,0.4-0.5c7.9-4.2,14.5-7.2,21.5-7.2c0.6,0,1.6,0.1,2.4,0.3l0.4-0.3l2.4-0.2
				l0.2,0.6c-6.5,5.2-10.6,9.7-10.6,10.9c0,0.3,0.3,0.5,0.5,0.5c2.5,0,6.8-2,11-4.5c0.2,0,0.4,0.1,0.4,0.3c0,0.2-0.1,0.3-0.4,0.5
				c-3.9,2.2-8,4.4-11.1,4.4c-0.9,0-1.4-0.6-1.4-1.2c0-0.9,0.6-2.7,2.8-5c-5.3,4-10.5,6.1-13,6.1c-1.1,0-1.8-0.6-1.8-1.6
				c0-1.4,0.4-3.2,4.2-6.5c-2.1,0.9-3.6,1.7-7.4,3.7C97.8,139.6,97.6,139.5,97.6,139.3z M121.3,132.4l-1.8-0.2
				c-6.3,0-17.2,8.2-17.2,10.4c0,0.4,0.2,0.6,0.6,0.6c2,0,7.7-2.2,13.9-7C118.1,135.1,119.7,133.9,121.3,132.4z"/>
			<path class="st8" d="M125.3,139.3c0-0.2,0.1-0.3,0.4-0.5c4-2.4,6.7-4.1,11.3-7.2c0.7,0,2-0.1,2.8-0.2l0.2,0.6
				c-6.5,5.9-10.1,9.1-10.1,10.4c0,0.7,0.6,0.9,1.2,0.9c3.6,0,13.2-6.8,18.5-11.7c0.7,0,2-0.1,2.8-0.2l0.2,0.6
				c-6.5,5.9-9.8,8.9-9.8,10.6c0,0.5,0.5,0.7,1.2,0.7c1.8,0,5-1.8,9.4-4.5c0.2,0,0.4,0.1,0.4,0.3c0,0.2-0.1,0.3-0.4,0.5
				c-4,2.5-7.4,4.5-9.5,4.5c-1.4,0-2.7-0.6-2.7-2c0-1.2,0.6-2.8,2.6-4.7c-3.9,2.8-9.6,6.7-12.8,6.7c-1.4,0-2.5-0.6-2.5-2.1
				s1.8-4.1,5.1-7.3c-2.7,1.8-3.9,2.5-7.8,4.9C125.5,139.6,125.3,139.5,125.3,139.3z"/>
			<path class="st8" d="M153,139.3c0-0.2,0.1-0.3,0.4-0.5c3.8-2.2,7.5-4.4,14-9.2c1.2-2.4,2.7-4.9,4.1-4.9c0.5,0,0.9,0.3,0.9,0.8
				c0,1.3-2.4,2.1-4.5,4.3c-0.6,1-0.6,1.7-0.6,2.3c0,0.6,0.1,1,0.1,1.8c0,3.8-7,7.2-7,8.9c0,0.4,0.2,0.6,0.7,0.6
				c2.8,0,6.5-1.9,10.7-4.5c0.2,0,0.4,0.1,0.4,0.3c0,0.2-0.1,0.3-0.4,0.5c-3.8,2.3-7.7,4.4-10.8,4.4c-1.4,0-1.9-0.6-1.9-1.8
				c0-4.3,7.5-7.3,7.5-8.9v-0.8c0-0.6,0-1,0.3-1.7c-5.8,4.1-8.9,6.1-13.5,8.8C153.2,139.6,153,139.5,153,139.3z"/>
			<path class="st8" d="M171.4,139.3c0-0.2,0.1-0.3,0.4-0.5c7.9-4.2,14.5-7.2,21.5-7.2c0.6,0,1.6,0.1,2.4,0.3l0.4-0.3l2.4-0.2
				l0.2,0.6c-6.5,5.2-10.6,9.7-10.6,10.9c0,0.3,0.3,0.5,0.5,0.5c2.5,0,6.8-2,11-4.5c0.2,0,0.4,0.1,0.4,0.3c0,0.2-0.1,0.3-0.4,0.5
				c-3.9,2.2-8,4.4-11.1,4.4c-0.9,0-1.4-0.6-1.4-1.2c0-0.9,0.6-2.7,2.8-5c-5.3,4-10.5,6.1-13,6.1c-1.1,0-1.8-0.6-1.8-1.6
				c0-1.4,0.4-3.2,4.2-6.5c-2.1,0.9-3.6,1.7-7.4,3.7C171.6,139.6,171.4,139.5,171.4,139.3z M195.1,132.4l-1.8-0.2
				c-6.3,0-17.2,8.2-17.2,10.4c0,0.4,0.2,0.6,0.6,0.6c2,0,7.7-2.2,13.9-7C191.9,135.1,193.5,133.9,195.1,132.4z"/>
		</g>
	</g>
	<g>
		<path class="st8" d="M2.7,176.1c0-0.9,0.2-1.8,0.5-2.7c0.3-0.9,0.8-1.7,1.4-2.4c0.6-0.7,1.3-1.3,2.2-1.7s1.9-0.7,3-0.7
			c1.3,0,2.5,0.3,3.4,0.9s1.6,1.4,2.1,2.3l-0.6,0.3c-0.4-0.7-0.8-1.3-1.4-1.7s-1.1-0.7-1.7-0.9c-0.6-0.2-1.2-0.3-1.8-0.3
			c-1,0-1.9,0.2-2.7,0.6s-1.4,0.9-2,1.6c-0.5,0.7-0.9,1.4-1.2,2.2c-0.3,0.8-0.4,1.6-0.4,2.4c0,0.9,0.2,1.8,0.5,2.6
			c0.3,0.8,0.8,1.6,1.3,2.2c0.6,0.6,1.2,1.2,2,1.5c0.8,0.4,1.6,0.6,2.5,0.6c0.6,0,1.3-0.1,1.9-0.3s1.3-0.5,1.8-1
			c0.6-0.4,1-1,1.4-1.7l0.7,0.3c-0.3,0.7-0.8,1.4-1.5,1.9c-0.6,0.5-1.4,0.9-2.1,1.2c-0.8,0.3-1.5,0.4-2.3,0.4c-1,0-1.9-0.2-2.8-0.7
			c-0.9-0.4-1.6-1-2.2-1.8c-0.6-0.7-1.1-1.6-1.4-2.5S2.7,177,2.7,176.1z"/>
		<path class="st8" d="M24.1,183.7c-1,0-2-0.2-2.8-0.6c-0.9-0.4-1.6-1-2.2-1.7s-1.1-1.5-1.4-2.4c-0.3-0.9-0.5-1.8-0.5-2.8
			c0-1,0.2-1.9,0.5-2.8c0.3-0.9,0.8-1.7,1.5-2.4c0.6-0.7,1.4-1.3,2.2-1.7c0.8-0.4,1.8-0.6,2.7-0.6c1,0,2,0.2,2.8,0.7
			c0.9,0.4,1.6,1,2.2,1.7c0.6,0.7,1.1,1.5,1.4,2.4c0.3,0.9,0.5,1.8,0.5,2.7c0,1-0.2,2-0.5,2.9c-0.3,0.9-0.8,1.7-1.5,2.4
			s-1.4,1.3-2.2,1.7C26,183.5,25,183.7,24.1,183.7z M17.8,176.2c0,0.9,0.2,1.8,0.5,2.6c0.3,0.8,0.7,1.6,1.3,2.2
			c0.6,0.6,1.2,1.2,2,1.5c0.8,0.4,1.6,0.6,2.5,0.6c0.9,0,1.8-0.2,2.5-0.6c0.8-0.4,1.4-0.9,2-1.6c0.5-0.7,1-1.4,1.3-2.2
			c0.3-0.8,0.4-1.6,0.4-2.5c0-0.9-0.2-1.8-0.5-2.6c-0.3-0.8-0.7-1.6-1.3-2.2c-0.6-0.6-1.2-1.2-2-1.5c-0.8-0.4-1.6-0.6-2.5-0.6
			c-0.9,0-1.8,0.2-2.6,0.6c-0.8,0.4-1.4,0.9-2,1.6c-0.5,0.7-1,1.4-1.3,2.2C18,174.5,17.8,175.3,17.8,176.2z"/>
		<path class="st8" d="M34,183.6v-14.9h6.1c0.6,0,1.2,0.1,1.7,0.4c0.5,0.3,1,0.6,1.3,1c0.4,0.4,0.7,0.9,0.9,1.5
			c0.2,0.5,0.3,1.1,0.3,1.6c0,0.8-0.2,1.5-0.5,2.1c-0.3,0.7-0.7,1.2-1.3,1.6c-0.5,0.4-1.2,0.7-1.9,0.8l3.7,5.8h-0.8l-3.7-5.8h-5.2
			v5.8H34z M34.7,177.2h5.5c0.7,0,1.3-0.2,1.8-0.6c0.5-0.4,0.9-0.9,1.2-1.5s0.4-1.2,0.4-1.9c0-0.7-0.2-1.3-0.5-1.9s-0.8-1.1-1.3-1.4
			c-0.5-0.4-1.1-0.5-1.8-0.5h-5.4V177.2z"/>
		<path class="st8" d="M48.3,170.1v13.5h-0.7v-14.9h0.6L59,182.5v-13.8h0.7v14.9H59L48.3,170.1z"/>
		<path class="st8" d="M73.7,183v0.7h-9.8v-14.9h9.7v0.7h-8.9v6.3h7.8v0.7h-7.8v6.6H73.7z"/>
		<path class="st8" d="M76.7,183.6v-14.9h0.7V183h9.1v0.7H76.7z"/>
		<path class="st8" d="M88.9,183.6v-14.9h0.7V183h9.1v0.7H88.9z"/>
		<path class="st8" d="M98.8,178.3v-0.7h6v0.7H98.8z"/>
		<path class="st8" d="M107.1,178.2c0-1,0.2-2,0.7-2.8c0.4-0.9,1-1.5,1.8-2.1s1.6-0.8,2.6-0.8c1,0,1.8,0.3,2.6,0.8
			c0.8,0.5,1.3,1.1,1.8,1.9v-6.9h0.7v14.2c0,0.1,0,0.3,0.1,0.3c0.1,0.1,0.2,0.1,0.3,0.1v0.6c-0.2,0-0.3,0-0.4,0
			c-0.2-0.1-0.4-0.2-0.5-0.3c-0.1-0.2-0.2-0.3-0.2-0.5v-1.3c-0.4,0.7-1.1,1.3-1.8,1.8c-0.8,0.4-1.6,0.7-2.4,0.7
			c-0.8,0-1.5-0.2-2.1-0.5c-0.6-0.3-1.2-0.7-1.7-1.3s-0.8-1.1-1.1-1.8C107.2,179.6,107.1,178.9,107.1,178.2z M116.5,180v-3.8
			c-0.2-0.6-0.5-1.1-1-1.5s-1-0.8-1.6-1.1c-0.6-0.3-1.1-0.4-1.7-0.4c-0.7,0-1.3,0.1-1.8,0.4c-0.5,0.3-1,0.7-1.4,1.1
			c-0.4,0.5-0.7,1-0.9,1.6c-0.2,0.6-0.3,1.2-0.3,1.8c0,0.7,0.1,1.3,0.3,1.9c0.2,0.6,0.6,1.1,1,1.6c0.4,0.5,0.9,0.8,1.5,1.1
			c0.6,0.3,1.2,0.4,1.8,0.4c0.4,0,0.8-0.1,1.3-0.2c0.5-0.2,0.9-0.4,1.3-0.7c0.4-0.3,0.8-0.6,1-1C116.3,180.8,116.5,180.4,116.5,180z
			"/>
		<path class="st8" d="M119.9,172l0.3-1.9h-0.3v-1.7h0.8v1.7l-0.3,1.9H119.9z"/>
		<path class="st8" d="M133.9,183v0.7H124v-14.9h9.7v0.7h-8.9v6.3h7.8v0.7h-7.8v6.6H133.9z"/>
		<path class="st8" d="M135.6,176.1c0-0.9,0.2-1.8,0.5-2.7s0.8-1.7,1.4-2.4c0.6-0.7,1.3-1.3,2.2-1.7s1.9-0.7,3-0.7
			c1.3,0,2.5,0.3,3.4,0.9c0.9,0.6,1.6,1.4,2.1,2.3l-0.6,0.3c-0.4-0.7-0.8-1.3-1.4-1.7s-1.1-0.7-1.7-0.9s-1.2-0.3-1.8-0.3
			c-1,0-1.9,0.2-2.7,0.6c-0.8,0.4-1.4,0.9-2,1.6c-0.5,0.7-0.9,1.4-1.2,2.2c-0.3,0.8-0.4,1.6-0.4,2.4c0,0.9,0.2,1.8,0.5,2.6
			c0.3,0.8,0.8,1.6,1.3,2.2c0.6,0.6,1.2,1.2,2,1.5c0.8,0.4,1.6,0.6,2.5,0.6c0.6,0,1.3-0.1,1.9-0.3s1.3-0.5,1.8-1
			c0.6-0.4,1-1,1.4-1.7l0.7,0.3c-0.3,0.7-0.8,1.4-1.5,1.9c-0.6,0.5-1.4,0.9-2.1,1.2c-0.8,0.3-1.5,0.4-2.3,0.4c-1,0-1.9-0.2-2.8-0.7
			c-0.9-0.4-1.6-1-2.2-1.8c-0.6-0.7-1.1-1.6-1.4-2.5S135.6,177,135.6,176.1z"/>
		<path class="st8" d="M162.6,168.7v14.9h-0.7v-7.3h-9.9v7.3h-0.7v-14.9h0.7v7h9.9v-7H162.6z"/>
		<path class="st8" d="M176.4,183v0.7h-9.8v-14.9h9.7v0.7h-8.9v6.3h7.8v0.7h-7.8v6.6H176.4z"/>
		<path class="st8" d="M179.5,183.6v-14.9h6.1c0.6,0,1.2,0.1,1.7,0.4c0.5,0.3,1,0.6,1.3,1c0.4,0.4,0.7,0.9,0.9,1.5
			c0.2,0.5,0.3,1.1,0.3,1.6c0,0.8-0.2,1.5-0.5,2.1c-0.3,0.7-0.7,1.2-1.3,1.6c-0.5,0.4-1.2,0.7-1.9,0.8l3.7,5.8h-0.8l-3.7-5.8h-5.2
			v5.8H179.5z M180.2,177.2h5.5c0.7,0,1.3-0.2,1.8-0.6c0.5-0.4,0.9-0.9,1.2-1.5c0.3-0.6,0.4-1.2,0.4-1.9c0-0.7-0.2-1.3-0.5-1.9
			s-0.8-1.1-1.3-1.4c-0.5-0.4-1.1-0.5-1.8-0.5h-5.4V177.2z"/>
		<path class="st8" d="M203.1,169.4h-5.6v14.2h-0.7v-14.2h-5.6v-0.7h11.9V169.4z"/>
	</g>
</g>
<g>
</g>
<g>
</g>
<g>
</g>
<g>
</g>
<g>
</g>
<g>
</g>
</svg>
